<?xml version="1.0" encoding="utf-8"?>
<!-- Generator: Adobe Illustrator 18.1.0, SVG Export Plug-In . SVG Version: 6.00 Build 0)  -->
<svg version="1.1" id="Layer_1" xmlns="http://www.w3.org/2000/svg" xmlns:xlink="http://www.w3.org/1999/xlink" x="0px" y="0px"
	 viewBox="309.98657 -0.00391 661.1217 801.8172" enable-background="new 309.98657 -0.00391 661.1217 801.8172"
	 xml:space="preserve">
<g>
	<path fill="#78C5E1" d="M323.98389,750.47101v39.83844c0,4.30688-4.30688,7.53699-7.53702,7.53699
		c-3.23016,0-6.4603-3.23022-6.4603-7.53699v-60.29608c0-5.38361,4.30685-7.53699,6.4603-7.53699
		c3.23013,0,5.38358,2.15338,6.4603,4.30688l23.68774,32.30145l24.76447-33.37817
		c3.23016-4.30688,11.84387-3.23016,11.84387,4.30688v60.29608c0,4.30688-3.23013,7.53699-6.4603,7.53699
		c-4.30685,0-6.4603-3.23016-6.4603-7.53699v-39.83844l-17.22745,22.61102c-4.30685,4.30688-8.61371,4.30688-11.84387,0
		L323.98389,750.47101z"/>
	<path fill="#78C5E1" d="M444.57608,798.92322c-20.45761,1.07666-40.91522-12.92059-40.91522-38.76178
		c0-26.91791,20.45761-39.83844,40.91522-39.83844c19.38089,1.07666,38.76175,13.99731,38.76175,39.83844
		C483.33783,786.00262,463.95697,798.92322,444.57608,798.92322z M443.49936,734.32025c-11.8439,0-24.7645,8.61377-24.7645,25.84119
		s12.92059,25.84119,24.7645,25.84119c12.92056,0,25.84116-8.61377,25.84116-25.84119
		C469.34055,742.93402,456.41995,734.32025,443.49936,734.32025z"/>
	<path fill="#78C5E1" d="M518.86945,791.38623c0,9.69043-13.99728,9.69043-13.99728,0v-61.3728
		c0-4.30688,3.23013-6.46027,6.4603-6.46027h29.07135c26.91791,0,33.37817,36.60834,9.69043,46.29883l13.99731,17.22742
		c5.38354,8.61377-5.38361,16.15076-11.84387,8.61377l-16.15076-24.76459h-17.22748V791.38623z M518.86945,759.08472h20.45764
		c13.99725,0,15.07397-22.61102,0-22.61102h-20.45764V759.08472z"/>
	<path fill="#78C5E1" d="M585.62585,730.01343c0-3.23016,3.23016-7.53699,7.53705-7.53699h24.7644
		c13.99731,0,26.91791,9.69049,26.91791,26.91791c0,17.22748-12.92059,26.91791-26.91791,26.91791h-17.22742v13.99738
		c0,4.30682-3.23016,7.53693-6.46033,7.53693c-3.2301,0-7.53699-3.23016-7.53699-7.53693v-60.2962H585.62585z M600.69989,735.39703
		v26.91791h18.30414c7.53705,0,12.92065-6.46033,12.92065-12.92059c0-7.53699-5.38361-13.99731-12.92065-13.99731H600.69989z"/>
	<path fill="#78C5E1" d="M664.22614,791.38623v-61.3728c0-4.30688,3.23016-6.46027,7.53705-6.46027
		c4.30682,0,6.46027,3.23016,6.46027,6.46027v23.68774h35.53162v-23.68774c0-4.30688,3.2301-6.46027,7.53699-6.46027
		s6.46033,3.23016,6.46033,6.46027v61.3728c0,4.30688-3.23016,6.46027-6.46033,6.46027c-4.30688,0-7.53699-3.23016-7.53699-6.46027
		v-23.68774h-35.53162v23.68774c0,4.30688-3.23016,6.46027-6.46027,6.46027
		C667.4563,797.8465,664.22614,794.61639,664.22614,791.38623z"/>
	<path fill="#78C5E1" d="M757.90039,797.8465c-4.30688,0-6.46027-3.23016-6.46027-6.46027v-61.3728
		c0-4.30688,3.2301-6.46027,6.46027-6.46027h38.76178c9.69043,0,9.69043,13.99731,0,13.99731h-31.22479v16.1507h26.91791
		c9.69043,0,9.69043,13.99731,0,13.99731h-26.91791v16.15076h33.37817c9.69043,0,10.76715,13.99731,0,13.99731h-40.91516V797.8465z"
		/>
	<path fill="#78C5E1" d="M876.33917,730.01343c0-9.69043,13.99725-10.76715,13.99725,0v38.76178
		c0,39.83844-64.60297,39.83844-64.60297,0v-38.76178c0-9.69043,13.99731-9.69043,13.99731,0v38.76178
		c0,21.5343,36.6084,22.61102,36.6084,0V730.01343z"/>
	<path fill="#78C5E1" d="M912.94751,739.7038c2.15344-20.45758,34.4549-24.76447,49.52893-12.92053
		c7.53699,6.46027,0,15.07404-6.46033,10.76715c-7.53699-5.38354-25.84119-7.53699-27.99457,4.30688
		c-3.23016,17.22742,44.14532,7.53699,43.06866,36.60834c-1.07672,26.91791-40.91522,27.99463-54.91254,16.15076
		c-3.2301-3.23016-3.2301-7.53699-1.07666-10.76715c3.2301-3.23016,6.46027-4.30688,9.69043-1.07672
		c8.61371,6.46033,31.22479,10.76715,33.37817-4.30688C953.86267,760.16144,909.71735,769.85193,912.94751,739.7038z"/>
</g>
<path fill="#78C5E1" d="M932.7337,383.19577c-33.34076,133.94858-155.32843,229.24741-299.0025,229.24741
	c-144.32471,0-265.2623-100.93954-297.23672-235.44086c38.44757,0,74.39047,0.17566,91.07712,0.17566
	c7.87161,0,9.4003,0.13654,9.85574,0.10397c12.55557-0.61801,28.29901-4.76199,38.77277-30.23111l39.91135-104.40352
	l88.63757,213.97865C612.71832,473.63782,626.02216,473,633.95868,473h0.74829c15.48315,0,22.21637-5.99283,28.10382-17.21487
	l100.11969-211.25397l34.15393,94.93793l2.08179,4.53259c7.22101,15.84088,12.41565,31.45227,30.28625,33.49695
	c3.68384,0.42148,46.46381-0.34363,104.13507-0.34363C933.58752,377.155,933.58789,377.50726,932.7337,383.19577z"/>
<path fill="#F46E5D" d="M942.51508,304.35092c0,1.59381,0,5.64908-0.03253,5.64908h-0.06512h-92.05157L796.6615,159.93414
	c-4.78143-11.15694-11.97009-27.90594-32.91785-27.90594c-12.81586,0-24.39563,10.57272-30.96625,28.03999l-97.35492,225.49788
	l-93.71185-224.13876c-9.17279-19.90683-15.5155-29.27055-33.86108-29.27055c-12.4581,0-21.59833,4.58841-31.55176,28.17088
	l-55.62201,151.80704l-92.41086-0.09695c-0.06512-2.30954-0.09747-4.61859-0.09747-6.92813
	c0-168.75288,136.81082-305.11349,305.56375-305.11349S942.51508,135.59801,942.51508,304.35092z"/>
</svg>
